PathFileType	4	(X/Y/Z)	C:\Users\WrightLab\Desktop\Jo\P4V129.trc
DataRate	CameraRate	NumFrames	NumMarkers	Units	OrigDataRate	OrigDataStartFrame	OrigNumFrames
100.00	100.00	       11	19	mm	100.00	115	       456
Frame#	Time	Headset_Front			Headset_Back			Headset_Left			Headset_Right			Left_Shoulder			Right_Shoulder			Sternum			C7			Left Elbow			Right Elbow			Left Wrist			Right Wrist			Left ASIS			Right ASIS			S2			Left Knee			Right Knee			Left Ankle			Right Ankle			
		X1	Y1	Z1	X2	Y2	Z2	X3	Y3	Z3	X4	Y4	Z4	X5	Y5	Z5	X6	Y6	Z6	X7	Y7	Z7	X8	Y8	Z8	X9	Y9	Z9	X10	Y10	Z10	X11	Y11	Z11	X12	Y12	Z12	X13	Y13	Z13	X14	Y14	Z14	X15	Y15	Z15	X16	Y16	Z16	X17	Y17	Z17	X18	Y18	Z18	X19	Y19	Z19	

115	1.140							-67.24786	1679.19617	1077.00903				-24.43039	1529.34778	1309.91699	262.59518	1559.90112	1271.99292	96.59417	1485.12720	1182.34753	127.97003	1580.39099	1344.51331	-244.97398	1296.68970	1164.02502	484.76541	1224.58679	805.57330	-288.80588	1194.21277	865.89093	480.66827	1316.67712	1095.72510	-7.71153	1030.60486	1214.17847	315.83893	1070.54919	1142.99036				80.61246	553.45520	1293.69043	341.29526	606.93793	1048.47888	208.90178	93.53735	1481.89026	345.80954	99.54745	990.11865	
116	1.150							-68.41537	1677.78015	1067.74231				-25.51514	1526.74048	1301.08252	261.54868	1558.71375	1262.05359	92.00016	1483.18872	1173.29065	126.71651	1578.76074	1336.99683	-243.27805	1289.73560	1156.53210	480.83371	1234.36023	788.61176	-286.02740	1179.54053	861.47308	479.05841	1319.53113	1080.14685	-8.32907	1028.78638	1205.41638	314.96500	1068.22375	1131.37280				79.98500	552.90948	1289.75940	338.25580	603.18170	1040.51245	208.71503	93.85719	1481.65735	336.65207	98.46522	965.92310	
117	1.160							-69.49664	1676.31787	1058.53809	99.11111	1817.50427	1303.01819	-27.28576	1524.59277	1292.11401	259.94095	1557.53699	1251.20813	92.18603	1481.09180	1162.95581	125.15555	1576.59119	1327.46960	-241.60828	1282.59180	1149.16162	477.24390	1243.77222	771.90662	-283.72498	1165.20874	856.88770	478.44101	1323.57825	1065.91150	-8.81918	1026.87170	1196.51147	313.55707	1065.74902	1120.33337				79.66048	552.26099	1285.00244	336.83731	600.69220	1030.87805	208.85529	94.13174	1481.36316	326.16858	97.60786	942.02344	
118	1.170							-71.10278	1675.08191	1049.26746	97.52157	1815.50378	1293.90027	-29.05957	1522.13892	1282.93640	258.38187	1555.30811	1241.59607	90.93762	1479.35425	1152.90393	123.69945	1574.32739	1317.79932	-240.96873	1275.94714	1141.47559	473.41721	1252.94495	755.53668	-281.37827	1151.26941	852.26129	476.83954	1326.89099	1051.04541	-9.36019	1024.96362	1187.43872	312.48288	1063.97253	1108.43689				79.28210	550.84290	1280.54822	333.44232	597.95056	1021.68658	208.71194	94.84013	1480.88428	316.22983	96.94932	920.86316	
119	1.180							-71.71165	1673.71301	1039.64905	95.86565	1813.32166	1284.70532	-30.90924	1519.78442	1273.20056	256.02588	1553.45776	1230.15161	89.36545	1477.71680	1143.57922	122.35217	1572.20276	1307.89526	-239.43916	1268.78772	1133.79553	469.60986	1262.62122	739.88995	-278.39761	1136.97620	847.47583	475.15039	1329.92163	1036.37158	-9.91660	1023.10620	1178.38586	311.30298	1061.36731	1097.38062				78.80747	550.43726	1276.05444	330.79477	595.35461	1010.37177	208.70857	96.13550	1480.15186	305.96127	94.33099	902.26349	
120	1.190							-72.25507	1672.37952	1030.01062	94.21692	1811.13672	1275.58850	-32.57790	1517.07190	1263.62610	253.99893	1552.18030	1220.44080	87.51425	1475.42615	1133.36829	120.25891	1570.20361	1298.12329	-237.81247	1261.48059	1125.81396	466.28232	1271.73560	724.83313	-276.67847	1122.24500	843.50684	473.41681	1334.03564	1021.53320	-10.53033	1021.29315	1169.19299	310.27087	1059.18604	1086.59729				78.40766	550.04602	1271.12402	327.14447	593.39685	998.50824	208.34996	97.66707	1479.76514	297.01849	93.22147	885.48438	
121	1.200							-73.88994	1670.93530	1020.49420	92.56445	1808.98425	1266.33496	-34.03945	1514.58240	1253.44104	251.88326	1550.31116	1209.82434	85.27962	1473.69739	1123.31836	118.53783	1568.00305	1288.10571	-237.06201	1254.58289	1117.83960	461.97650	1281.80164	709.35162	-273.33044	1108.28198	839.12500	472.21793	1337.67041	1008.26276	-11.22523	1019.62213	1159.97314	309.40543	1057.70801	1075.31201				77.48608	548.95770	1265.82104	323.79205	592.66541	985.37933	208.96509	99.19051	1478.99475	287.78329	90.50031	872.61011	
122	1.210							-75.27522	1669.76428	1010.69415	90.56912	1806.83667	1256.95239	-35.98954	1511.90112	1243.44067	250.65715	1548.53540	1199.57483	84.11803	1470.61865	1113.74084	117.23239	1565.80493	1277.88391	-235.41840	1247.24719	1109.87988	457.83444	1291.22473	694.43091	-271.95367	1093.80725	835.54419	471.23099	1341.11951	993.87408	-11.72624	1017.93951	1150.66418	307.74554	1055.53223	1063.48206				76.57716	548.56494	1260.33887	320.91083	591.90143	970.93903	208.63884	100.57703	1478.07385	280.08514	88.77988	861.42340	
123	1.220							-76.65372	1668.60803	1000.90216	88.60038	1804.71387	1247.41858	-38.45960	1509.67053	1232.86206	248.58733	1547.49988	1189.53821	81.64304	1468.28076	1103.41565	115.37361	1563.87317	1267.76746	-234.22919	1240.32373	1101.78882	453.48996	1301.61902	679.54596	-269.93051	1079.96667	831.79626	469.03967	1345.15576	979.63788	-12.36596	1016.38586	1141.14990	306.44650	1054.75000	1051.81592				75.43694	548.17450	1253.84705	317.90054	591.18103	957.23926	208.59868	102.32518	1476.70569	272.55838	86.28740	852.36212	
124	1.230							-78.22694	1667.50024	991.04169	87.23973	1802.68005	1237.76672	-40.41957	1507.64673	1222.05432	246.01320	1545.77002	1178.11414	80.43678	1466.83252	1093.20837	113.72102	1562.01733	1257.28992	-232.74414	1233.19836	1093.72986	449.75357	1311.38025	665.03162	-268.22195	1065.62292	828.87878	467.70465	1348.96362	965.91669	-11.88800	1015.11230	1130.11462	305.20914	1053.11890	1040.25146				74.08901	547.46313	1247.36475	313.48672	590.85144	942.26270	208.17644	104.77943	1475.83362	266.66922	83.69391	844.64941	
125	1.240							-79.64346	1666.70776	980.92798	85.47446	1800.82971	1227.97656	-41.96901	1505.26721	1211.24316	244.33197	1544.49438	1167.74023	79.52354	1464.68152	1082.56763	112.03976	1560.09766	1246.88013	-230.97298	1225.93176	1085.96851	445.09048	1321.38940	650.90924	-266.36108	1051.85461	825.43445	466.23544	1352.87537	952.99390	-13.32145	1013.18860	1120.41870	303.23300	1051.98975	1027.38770				72.48874	546.87378	1240.48376	311.34857	590.58594	927.16559	207.35945	107.28516	1474.63794	261.79758	81.65007	838.42908	
